<?xml version="1.0" encoding="us-ascii" standalone="no"?><svg xmlns="http://www.w3.org/2000/svg" xmlns:xlink="http://www.w3.org/1999/xlink" contentStyleType="text/css" height="907px" preserveAspectRatio="none" style="width:515px;height:907px;background:#FFFFFF;" version="1.1" viewBox="0 0 515 907" width="515px" zoomAndPan="magnify"><defs/><g><!--cluster com--><g id="cluster_com"><path d="M8.5,6 L42.5,6 A3.75,3.75 0 0 1 45,8.5 L52,28.2969 L505.5,28.2969 A2.5,2.5 0 0 1 508,30.7969 L508,898.06 A2.5,2.5 0 0 1 505.5,900.56 L8.5,900.56 A2.5,2.5 0 0 1 6,898.06 L6,8.5 A2.5,2.5 0 0 1 8.5,6 " fill="none" style="stroke:#000000;stroke-width:1.5;"/><line style="stroke:#000000;stroke-width:1.5;" x1="6" x2="52" y1="28.2969" y2="28.2969"/><text fill="#000000" font-family="sans-serif" font-size="14" font-weight="bold" lengthAdjust="spacing" textLength="33" x="10" y="20.9951">com</text></g><!--cluster fges--><g id="cluster_fges"><path d="M32.5,49 L68.5,49 A3.75,3.75 0 0 1 71,51.5 L78,71.2969 L481.5,71.2969 A2.5,2.5 0 0 1 484,73.7969 L484,874.06 A2.5,2.5 0 0 1 481.5,876.56 L32.5,876.56 A2.5,2.5 0 0 1 30,874.06 L30,51.5 A2.5,2.5 0 0 1 32.5,49 " fill="none" style="stroke:#000000;stroke-width:1.5;"/><line style="stroke:#000000;stroke-width:1.5;" x1="30" x2="78" y1="71.2969" y2="71.2969"/><text fill="#000000" font-family="sans-serif" font-size="14" font-weight="bold" lengthAdjust="spacing" textLength="35" x="34" y="63.9951">fges</text></g><!--cluster todoapp--><g id="cluster_todoapp"><path d="M56.5,92 L122.5,92 A3.75,3.75 0 0 1 125,94.5 L132,114.2969 L457.5,114.2969 A2.5,2.5 0 0 1 460,116.7969 L460,850.06 A2.5,2.5 0 0 1 457.5,852.56 L56.5,852.56 A2.5,2.5 0 0 1 54,850.06 L54,94.5 A2.5,2.5 0 0 1 56.5,92 " fill="none" style="stroke:#000000;stroke-width:1.5;"/><line style="stroke:#000000;stroke-width:1.5;" x1="54" x2="132" y1="114.2969" y2="114.2969"/><text fill="#000000" font-family="sans-serif" font-size="14" font-weight="bold" lengthAdjust="spacing" textLength="65" x="58" y="106.9951">todoapp</text></g><!--cluster service--><g id="cluster_service"><path d="M80.5,270.59 L139.5,270.59 A3.75,3.75 0 0 1 142,273.09 L149,292.8869 L433.5,292.8869 A2.5,2.5 0 0 1 436,295.3869 L436,415.98 A2.5,2.5 0 0 1 433.5,418.48 L80.5,418.48 A2.5,2.5 0 0 1 78,415.98 L78,273.09 A2.5,2.5 0 0 1 80.5,270.59 " fill="none" style="stroke:#000000;stroke-width:1.5;"/><line style="stroke:#000000;stroke-width:1.5;" x1="78" x2="149" y1="292.8869" y2="292.8869"/><text fill="#000000" font-family="sans-serif" font-size="14" font-weight="bold" lengthAdjust="spacing" textLength="58" x="82" y="285.5851">service</text></g><!--cluster dataaccess--><g id="cluster_dataaccess"><path d="M115.5,467.48 L205.5,467.48 A3.75,3.75 0 0 1 208,469.98 L215,489.7769 L398.5,489.7769 A2.5,2.5 0 0 1 401,492.2769 L401,629.17 A2.5,2.5 0 0 1 398.5,631.67 L115.5,631.67 A2.5,2.5 0 0 1 113,629.17 L113,469.98 A2.5,2.5 0 0 1 115.5,467.48 " fill="none" style="stroke:#000000;stroke-width:1.5;"/><line style="stroke:#000000;stroke-width:1.5;" x1="113" x2="215" y1="489.7769" y2="489.7769"/><text fill="#000000" font-family="sans-serif" font-size="14" font-weight="bold" lengthAdjust="spacing" textLength="89" x="117" y="482.4751">dataaccess</text></g><!--cluster model--><g id="cluster_model"><path d="M132.5,680.67 L181.5,680.67 A3.75,3.75 0 0 1 184,683.17 L191,702.9669 L381.5,702.9669 A2.5,2.5 0 0 1 384,705.4669 L384,826.06 A2.5,2.5 0 0 1 381.5,828.56 L132.5,828.56 A2.5,2.5 0 0 1 130,826.06 L130,683.17 A2.5,2.5 0 0 1 132.5,680.67 " fill="none" style="stroke:#000000;stroke-width:1.5;"/><line style="stroke:#000000;stroke-width:1.5;" x1="130" x2="191" y1="702.9669" y2="702.9669"/><text fill="#000000" font-family="sans-serif" font-size="14" font-weight="bold" lengthAdjust="spacing" textLength="48" x="134" y="695.6651">model</text></g><!--class App--><g id="elem_App"><rect codeLine="3" fill="#F1F1F1" height="80.5938" id="App" rx="2.5" ry="2.5" style="stroke:#181818;stroke-width:0.5;" width="194" x="160" y="127"/><ellipse cx="239.25" cy="143" fill="#ADD1B2" rx="11" ry="11" style="stroke:#181818;stroke-width:1.0;"/><path d="M242.2188,148.6406 Q241.6406,148.9375 241,149.0781 Q240.3594,149.2344 239.6563,149.2344 Q237.1563,149.2344 235.8281,147.5938 Q234.5156,145.9375 234.5156,142.8125 Q234.5156,139.6875 235.8281,138.0313 Q237.1563,136.375 239.6563,136.375 Q240.3594,136.375 241,136.5313 Q241.6563,136.6875 242.2188,136.9844 L242.2188,139.7031 Q241.5938,139.125 241,138.8594 Q240.4063,138.5781 239.7813,138.5781 Q238.4375,138.5781 237.75,139.6563 Q237.0625,140.7188 237.0625,142.8125 Q237.0625,144.9063 237.75,145.9844 Q238.4375,147.0469 239.7813,147.0469 Q240.4063,147.0469 241,146.7813 Q241.5938,146.5 242.2188,145.9219 L242.2188,148.6406 Z " fill="#000000"/><text fill="#000000" font-family="sans-serif" font-size="14" lengthAdjust="spacing" textLength="27" x="259.75" y="147.8467">App</text><line style="stroke:#181818;stroke-width:0.5;" x1="161" x2="353" y1="159" y2="159"/><line style="stroke:#181818;stroke-width:0.5;" x1="161" x2="353" y1="167" y2="167"/><ellipse cx="171" cy="180.6484" fill="#84BE84" rx="3" ry="3" style="stroke:#038048;stroke-width:1.0;"/><text fill="#000000" font-family="sans-serif" font-size="14" lengthAdjust="spacing" textLength="168" x="180" y="183.9951">main(String[] args) : void</text><ellipse cx="171" cy="196.9453" fill="#84BE84" rx="3" ry="3" style="stroke:#038048;stroke-width:1.0;"/><text fill="#000000" font-family="sans-serif" font-size="14" lengthAdjust="spacing" textLength="157" x="180" y="200.292">exec(String[] args) : int</text></g><!--class TodoService--><g id="elem_TodoService"><rect codeLine="9" fill="#F1F1F1" height="96.8906" id="TodoService" rx="2.5" ry="2.5" style="stroke:#181818;stroke-width:0.5;" width="326" x="94" y="305.59"/><ellipse cx="209.75" cy="321.59" fill="#ADD1B2" rx="11" ry="11" style="stroke:#181818;stroke-width:1.0;"/><path d="M212.7188,327.2306 Q212.1406,327.5275 211.5,327.6681 Q210.8594,327.8244 210.1563,327.8244 Q207.6563,327.8244 206.3281,326.1837 Q205.0156,324.5275 205.0156,321.4025 Q205.0156,318.2775 206.3281,316.6212 Q207.6563,314.965 210.1563,314.965 Q210.8594,314.965 211.5,315.1212 Q212.1563,315.2775 212.7188,315.5744 L212.7188,318.2931 Q212.0938,317.715 211.5,317.4494 Q210.9063,317.1681 210.2813,317.1681 Q208.9375,317.1681 208.25,318.2462 Q207.5625,319.3087 207.5625,321.4025 Q207.5625,323.4962 208.25,324.5744 Q208.9375,325.6369 210.2813,325.6369 Q210.9063,325.6369 211.5,325.3712 Q212.0938,325.09 212.7188,324.5119 L212.7188,327.2306 Z " fill="#000000"/><text fill="#000000" font-family="sans-serif" font-size="14" lengthAdjust="spacing" textLength="86" x="230.25" y="326.4367">TodoService</text><line style="stroke:#181818;stroke-width:0.5;" x1="95" x2="419" y1="337.59" y2="337.59"/><rect fill="none" height="6" style="stroke:#C82930;stroke-width:1.0;" width="6" x="102" y="348.2384"/><text fill="#000000" font-family="sans-serif" font-size="14" lengthAdjust="spacing" textLength="211" x="114" y="354.5851">dataAccess : TodoDataAccess</text><line style="stroke:#181818;stroke-width:0.5;" x1="95" x2="419" y1="361.8869" y2="361.8869"/><ellipse cx="105" cy="375.5353" fill="#84BE84" rx="3" ry="3" style="stroke:#038048;stroke-width:1.0;"/><text fill="#000000" font-family="sans-serif" font-size="14" lengthAdjust="spacing" textLength="300" x="114" y="378.882">executeCommand(CommandLine cmd) : int</text><ellipse cx="105" cy="391.8322" fill="#84BE84" rx="3" ry="3" style="stroke:#038048;stroke-width:1.0;"/><text fill="#000000" font-family="sans-serif" font-size="14" lengthAdjust="spacing" textLength="199" x="114" y="395.1789">TodoService(String fileName)</text></g><!--class TodoDataAccess--><g id="elem_TodoDataAccess"><rect codeLine="17" fill="#F1F1F1" height="113.1875" id="TodoDataAccess" rx="2.5" ry="2.5" style="stroke:#181818;stroke-width:0.5;" width="257" x="128.5" y="502.48"/><ellipse cx="193.75" cy="518.48" fill="#ADD1B2" rx="11" ry="11" style="stroke:#181818;stroke-width:1.0;"/><path d="M196.7188,524.1206 Q196.1406,524.4175 195.5,524.5581 Q194.8594,524.7144 194.1563,524.7144 Q191.6563,524.7144 190.3281,523.0738 Q189.0156,521.4175 189.0156,518.2925 Q189.0156,515.1675 190.3281,513.5113 Q191.6563,511.855 194.1563,511.855 Q194.8594,511.855 195.5,512.0113 Q196.1563,512.1675 196.7188,512.4644 L196.7188,515.1831 Q196.0938,514.605 195.5,514.3394 Q194.9063,514.0581 194.2813,514.0581 Q192.9375,514.0581 192.25,515.1363 Q191.5625,516.1988 191.5625,518.2925 Q191.5625,520.3863 192.25,521.4644 Q192.9375,522.5269 194.2813,522.5269 Q194.9063,522.5269 195.5,522.2613 Q196.0938,521.98 196.7188,521.4019 L196.7188,524.1206 Z " fill="#000000"/><text fill="#000000" font-family="sans-serif" font-size="14" lengthAdjust="spacing" textLength="118" x="214.25" y="523.3267">TodoDataAccess</text><line style="stroke:#181818;stroke-width:0.5;" x1="129.5" x2="384.5" y1="534.48" y2="534.48"/><rect fill="none" height="6" style="stroke:#C82930;stroke-width:1.0;" width="6" x="136.5" y="545.1284"/><text fill="#000000" font-family="sans-serif" font-size="14" lengthAdjust="spacing" textLength="94" x="148.5" y="551.4751">filePath : Path</text><line style="stroke:#181818;stroke-width:0.5;" x1="129.5" x2="384.5" y1="558.7769" y2="558.7769"/><ellipse cx="139.5" cy="572.4253" fill="#84BE84" rx="3" ry="3" style="stroke:#038048;stroke-width:1.0;"/><text fill="#000000" font-family="sans-serif" font-size="14" lengthAdjust="spacing" textLength="202" x="148.5" y="575.772">insertTodo(String todo) : void</text><ellipse cx="139.5" cy="588.7222" fill="#84BE84" rx="3" ry="3" style="stroke:#038048;stroke-width:1.0;"/><text fill="#000000" font-family="sans-serif" font-size="14" lengthAdjust="spacing" textLength="114" x="148.5" y="592.0689">listTodos() : void</text><ellipse cx="139.5" cy="605.0191" fill="#84BE84" rx="3" ry="3" style="stroke:#038048;stroke-width:1.0;"/><text fill="#000000" font-family="sans-serif" font-size="14" lengthAdjust="spacing" textLength="231" x="148.5" y="608.3657">TodoDataAccess(String fileName)</text></g><!--class Todo--><g id="elem_Todo"><rect codeLine="26" fill="#F1F1F1" height="96.8906" id="Todo" rx="2.5" ry="2.5" style="stroke:#181818;stroke-width:0.5;" width="222" x="146" y="715.67"/><ellipse cx="234.75" cy="731.67" fill="#ADD1B2" rx="11" ry="11" style="stroke:#181818;stroke-width:1.0;"/><path d="M237.7188,737.3106 Q237.1406,737.6075 236.5,737.7481 Q235.8594,737.9044 235.1563,737.9044 Q232.6563,737.9044 231.3281,736.2638 Q230.0156,734.6075 230.0156,731.4825 Q230.0156,728.3575 231.3281,726.7013 Q232.6563,725.045 235.1563,725.045 Q235.8594,725.045 236.5,725.2013 Q237.1563,725.3575 237.7188,725.6544 L237.7188,728.3731 Q237.0938,727.795 236.5,727.5294 Q235.9063,727.2481 235.2813,727.2481 Q233.9375,727.2481 233.25,728.3263 Q232.5625,729.3888 232.5625,731.4825 Q232.5625,733.5763 233.25,734.6544 Q233.9375,735.7169 235.2813,735.7169 Q235.9063,735.7169 236.5,735.4513 Q237.0938,735.17 237.7188,734.5919 L237.7188,737.3106 Z " fill="#000000"/><text fill="#000000" font-family="sans-serif" font-size="14" lengthAdjust="spacing" textLength="36" x="255.25" y="736.5167">Todo</text><line style="stroke:#181818;stroke-width:0.5;" x1="147" x2="367" y1="747.67" y2="747.67"/><rect fill="none" height="6" style="stroke:#C82930;stroke-width:1.0;" width="6" x="154" y="758.3184"/><text fill="#000000" font-family="sans-serif" font-size="14" lengthAdjust="spacing" textLength="92" x="166" y="764.6651">name : String</text><line style="stroke:#181818;stroke-width:0.5;" x1="147" x2="367" y1="771.9669" y2="771.9669"/><ellipse cx="157" cy="785.6153" fill="#84BE84" rx="3" ry="3" style="stroke:#038048;stroke-width:1.0;"/><text fill="#000000" font-family="sans-serif" font-size="14" lengthAdjust="spacing" textLength="126" x="166" y="788.962">getName() : String</text><ellipse cx="157" cy="801.9122" fill="#84BE84" rx="3" ry="3" style="stroke:#038048;stroke-width:1.0;"/><text fill="#000000" font-family="sans-serif" font-size="14" lengthAdjust="spacing" textLength="196" x="166" y="805.2589">setName(String name) : void</text></g><!--link App to TodoService--><g id="link_App_TodoService"><path codeLine="34" d="M257,207.93 C257,236.45 257,269.05 257,299.28 " fill="none" id="App-to-TodoService" style="stroke:#181818;stroke-width:1.0;"/><polygon fill="#181818" points="257,305.28,261,296.28,257,300.28,253,296.28,257,305.28" style="stroke:#181818;stroke-width:1.0;"/><text fill="#000000" font-family="sans-serif" font-size="13" lengthAdjust="spacing" textLength="30" x="258" y="250.6569">uses</text></g><!--link TodoService to TodoDataAccess--><g id="link_TodoService_TodoDataAccess"><path codeLine="35" d="M257,402.9 C257,432.68 257,465.1 257,496.26 " fill="none" id="TodoService-to-TodoDataAccess" style="stroke:#181818;stroke-width:1.0;"/><polygon fill="#181818" points="257,502.26,261,493.26,257,497.26,253,493.26,257,502.26" style="stroke:#181818;stroke-width:1.0;"/><text fill="#000000" font-family="sans-serif" font-size="13" lengthAdjust="spacing" textLength="30" x="258" y="447.5469">uses</text></g><!--link TodoDataAccess to Todo--><g id="link_TodoDataAccess_Todo"><path codeLine="36" d="M257,616.09 C257,647.2 257,679.49 257,709.2 " fill="none" id="TodoDataAccess-to-Todo" style="stroke:#181818;stroke-width:1.0;"/><polygon fill="#181818" points="257,715.2,261,706.2,257,710.2,253,706.2,257,715.2" style="stroke:#181818;stroke-width:1.0;"/><polygon fill="#000000" points="262,661.2364,264.9389,652.1913,259.0611,652.1913,262,661.2364" style="stroke:#000000;stroke-width:1.0;"/><text fill="#000000" font-family="sans-serif" font-size="13" lengthAdjust="spacing" textLength="60" x="271" y="660.7369">manages</text></g><!--SRC=[ZP9DQiCm48NtFiMGbKDn3k1583JBKWBfhdGnI1DNr9ACfVn0oTqxakNOSZRTM7ZUqxnl97KeVh0X45PlJWsvZRVIOjV1Rm4WMdGETkaFu4MZCkNHzyeqdr-0VUFMKCF5AZdeT2Fnh2lZMRuN_EbIdAF-eWIblaFE1oSVipf09T7ZJWXYlOwE_QEGB37qxEdLQer6bcbzKuQdqd82YEPPI0A5ashf7JMje-U-H0q4E10iQIUM2JXqEw3_vjYmZBdAyCW-R1fZmq5dfyUkLhdeSULIoUF-YQwjfFQ9Uc8rl9LpXcPZKaC-j8m4kUAIaiB3xWnpo6U2y6AgQflTQ0rdHwwObqRBVdx73zUiMabxDSdCbXNVBu_dOBig_W00]--></g></svg>